<svg xmlns="http://www.w3.org/2000/svg" width="1200" height="240" viewBox="0 0 1200 240">
  <defs>
    <!-- Luthor.Tech palette: graphite + electric blue + silver -->
    <linearGradient id="bg" x1="0" x2="1" y1="0" y2="1">
      <stop offset="0" stop-color="#05070C"/>
      <stop offset="0.55" stop-color="#070B14"/>
      <stop offset="1" stop-color="#090F1F"/>
    </linearGradient>

    <linearGradient id="edge" x1="0" x2="1">
      <stop offset="0" stop-color="#8FB4D6" stop-opacity="0.0"/>
      <stop offset="0.5" stop-color="#E6EEF7" stop-opacity="0.75"/>
      <stop offset="1" stop-color="#8FB4D6" stop-opacity="0.0"/>
    </linearGradient>

    <linearGradient id="scan" x1="0" x2="1">
      <stop offset="0" stop-color="#2D7DFF" stop-opacity="0"/>
      <stop offset="0.5" stop-color="#2D7DFF" stop-opacity="0.95"/>
      <stop offset="1" stop-color="#2D7DFF" stop-opacity="0"/>
    </linearGradient>

    <filter id="glow" x="-60%" y="-60%" width="220%" height="220%">
      <feGaussianBlur stdDeviation="10" result="b"/>
      <feColorMatrix in="b" type="matrix"
        values="1 0 0 0 0
                0 1 0 0 0
                0 0 1 0 0
                0 0 0 0.35 0" result="g"/>
      <feMerge>
        <feMergeNode in="g"/>
        <feMergeNode in="SourceGraphic"/>
      </feMerge>
    </filter>

    <style>
      .h1 { font: 900 42px ui-sans-serif, -apple-system, Segoe UI, Roboto, Helvetica, Arial; fill: #E9F1FA; letter-spacing: 0.3px;}
      .h2 { font: 500 16px ui-sans-serif, -apple-system, Segoe UI, Roboto, Helvetica, Arial; fill: #9FB4C8; }
      .tag { font: 650 13px ui-sans-serif, -apple-system, Segoe UI, Roboto, Helvetica, Arial; fill: #D3E2F2; }
      .muted { font: 500 12px ui-sans-serif, -apple-system, Segoe UI, Roboto, Helvetica, Arial; fill: #7F95AA; }
    </style>
  </defs>

  <!-- Background -->
  <rect width="1200" height="240" fill="url(#bg)"/>

  <!-- Subtle grid -->
  <g opacity="0.12">
    <path d="M0 56H1200 M0 112H1200 M0 168H1200 M0 224H1200" stroke="#FFFFFF" stroke-width="1"/>
    <path d="M120 0V240 M240 0V240 M360 0V240 M480 0V240 M600 0V240 M720 0V240 M840 0V240 M960 0V240 M1080 0V240" stroke="#FFFFFF" stroke-width="1"/>
  </g>

  <!-- Holographic corner frame -->
  <g opacity="0.7">
    <path d="M42 38h120" stroke="url(#edge)" stroke-width="2"/>
    <path d="M42 38v120" stroke="url(#edge)" stroke-width="2"/>
    <path d="M1158 38h-120" stroke="url(#edge)" stroke-width="2"/>
    <path d="M1158 38v120" stroke="url(#edge)" stroke-width="2"/>
  </g>

  <!-- Animated scanline -->
  <g filter="url(#glow)">
    <rect x="-360" y="186" width="700" height="4" fill="url(#scan)">
      <animate attributeName="x" from="-360" to="1200" dur="3.2s" repeatCount="indefinite"/>
    </rect>
  </g>

  <!-- Electric blue divider with breathing opacity -->
  <rect x="0" y="182" width="1200" height="1.5" fill="#2D7DFF" opacity="0.16">
    <animate attributeName="opacity" values="0.10;0.32;0.10" dur="2.6s" repeatCount="indefinite"/>
  </rect>

  <!-- Particles -->
  <g opacity="0.22">
    <circle cx="160" cy="70" r="2" fill="#2D7DFF"/>
    <circle cx="320" cy="150" r="1.6" fill="#E6EEF7"/>
    <circle cx="520" cy="48" r="1.4" fill="#2D7DFF"/>
    <circle cx="760" cy="154" r="1.8" fill="#E6EEF7"/>
    <circle cx="980" cy="66" r="1.5" fill="#2D7DFF"/>
    <circle cx="1088" cy="126" r="1.3" fill="#E6EEF7"/>
  </g>

  <!-- Text -->
  <g transform="translate(60,78)">
    <text class="h1">Risa Luthor</text>
    <text class="h2" y="36">Applied AI & Enterprise Systems Engineer — governance-aware automation and observability-first tooling</text>

    <g transform="translate(0,64)">
      <rect x="0" y="0" width="268" height="30" rx="999" fill="rgba(255,255,255,0.06)" stroke="rgba(230,238,247,0.16)"/>
      <text class="tag" x="14" y="20">FastAPI • Python • Security</text>

      <rect x="284" y="0" width="274" height="30" rx="999" fill="rgba(255,255,255,0.06)" stroke="rgba(230,238,247,0.16)"/>
      <text class="tag" x="298" y="20">Governance • Auditing • CI</text>

      <rect x="574" y="0" width="312" height="30" rx="999" fill="rgba(255,255,255,0.06)" stroke="rgba(230,238,247,0.16)"/>
      <text class="tag" x="588" y="20">Deterministic Business Logic</text>

      <text class="muted" x="0" y="62">Luthor.Tech aesthetic: graphite • silver • electric blue</text>
    </g>
  </g>
</svg>
