<svg xmlns="http://www.w3.org/2000/svg" width="1200" height="340" viewBox="0 0 1200 340">
  <defs>
    <linearGradient id="bg" x1="0" x2="1" y1="0" y2="1">
      <stop offset="0" stop-color="#05060a"/>
      <stop offset="1" stop-color="#0a0f1f"/>
    </linearGradient>

    <linearGradient id="accent" x1="0" x2="1">
      <stop offset="0" stop-color="#49a3ff"/>
      <stop offset="1" stop-color="#7c3aed"/>
    </linearGradient>

    <filter id="softGlow" x="-40%" y="-40%" width="180%" height="180%">
      <feGaussianBlur stdDeviation="6" result="blur"/>
      <feColorMatrix in="blur" type="matrix"
        values="1 0 0 0 0
                0 1 0 0 0
                0 0 1 0 0
                0 0 0 0.35 0" result="glow"/>
      <feMerge>
        <feMergeNode in="glow"/>
        <feMergeNode in="SourceGraphic"/>
      </feMerge>
    </filter>

    <style>
      .title { font: 700 30px ui-sans-serif, -apple-system, Segoe UI, Roboto, Helvetica, Arial; fill: #e6edf3; }
      .sub { font: 500 15px ui-sans-serif, -apple-system, Segoe UI, Roboto, Helvetica, Arial; fill: #9fb0c0; }
      .label { font: 600 13px ui-sans-serif, -apple-system, Segoe UI, Roboto, Helvetica, Arial; fill: #c9d4df; }
      .muted { font: 500 12px ui-sans-serif, -apple-system, Segoe UI, Roboto, Helvetica, Arial; fill: #93a4b6; }
      .box { fill: rgba(255,255,255,0.04); stroke: rgba(255,255,255,0.14); stroke-width: 1.2; rx: 18; }
      .wire { stroke: rgba(73,163,255,0.55); stroke-width: 2; fill: none; }
      .wire2 { stroke: rgba(124,58,237,0.45); stroke-width: 2; fill: none; }
      .chip { fill: rgba(73,163,255,0.12); stroke: rgba(73,163,255,0.55); stroke-width: 1.2; rx: 12; }
      .node { fill: rgba(124,58,237,0.12); stroke: rgba(124,58,237,0.55); stroke-width: 1.2; rx: 12; }
      .pill { fill: rgba(255,255,255,0.06); stroke: rgba(255,255,255,0.12); stroke-width: 1; rx: 999; }
    </style>
  </defs>

  <!-- Background -->
  <rect x="0" y="0" width="1200" height="340" fill="url(#bg)"/>

  <!-- Subtle grid -->
  <g opacity="0.12">
    <path d="M0 60 H1200 M0 120 H1200 M0 180 H1200 M0 240 H1200 M0 300 H1200" stroke="#ffffff" stroke-width="1"/>
    <path d="M120 0 V340 M240 0 V340 M360 0 V340 M480 0 V340 M600 0 V340 M720 0 V340 M840 0 V340 M960 0 V340 M1080 0 V340" stroke="#ffffff" stroke-width="1"/>
  </g>

  <!-- Header text -->
  <g transform="translate(56,42)">
    <text class="title">Enterprise AI Systems — Observability & Governance Architecture</text>
    <text class="sub" y="30">Telemetry • Policy Controls • Deterministic Workflows • Secure Integration</text>

    <g transform="translate(0,54)">
      <rect class="pill" x="0" y="0" width="210" height="28"/>
      <text class="muted" x="14" y="19">FastAPI • Python • CI • Docker</text>

      <rect class="pill" x="226" y="0" width="220" height="28"/>
      <text class="muted" x="240" y="19">Metrics • Events • Audit Trails</text>

      <rect class="pill" x="462" y="0" width="250" height="28"/>
      <text class="muted" x="476" y="19">Redaction • Least Privilege • Safety</text>
    </g>
  </g>

  <!-- Architecture boxes -->
  <!-- Left: Clients -->
  <g filter="url(#softGlow)" transform="translate(60,135)">
    <rect class="box" x="0" y="0" width="230" height="150"/>
    <text class="label" x="18" y="28">Clients</text>
    <rect class="chip" x="18" y="44" width="194" height="32"/>
    <text class="muted" x="32" y="65">Dashboards / Operators</text>
    <rect class="chip" x="18" y="86" width="194" height="32"/>
    <text class="muted" x="32" y="107">CLI / Automation Jobs</text>
    <rect class="chip" x="18" y="128" width="194" height="32"/>
    <text class="muted" x="32" y="149">External Systems</text>
  </g>

  <!-- Middle: API -->
  <g filter="url(#softGlow)" transform="translate(330,122)">
    <rect class="box" x="0" y="0" width="300" height="178"/>
    <text class="label" x="18" y="28">Observability API</text>
    <rect class="node" x="18" y="44" width="264" height="34"/>
    <text class="muted" x="32" y="66">Middleware: latency + status capture</text>
    <rect class="node" x="18" y="88" width="264" height="34"/>
    <text class="muted" x="32" y="110">GET /metrics • GET /health</text>
    <rect class="node" x="18" y="132" width="264" height="34"/>
    <text class="muted" x="32" y="154">POST /events (token protected)</text>
  </g>

  <!-- Right: Stores -->
  <g filter="url(#softGlow)" transform="translate(670,135)">
    <rect class="box" x="0" y="0" width="470" height="150"/>
    <text class="label" x="18" y="28">Stores / Signals</text>

    <rect class="chip" x="18" y="44" width="210" height="44"/>
    <text class="muted" x="32" y="68">In-memory Metrics Store</text>
    <text class="muted" x="32" y="86">route • method • status • latency</text>

    <rect class="chip" x="242" y="44" width="210" height="44"/>
    <text class="muted" x="256" y="68">Events DB (SQLite)</text>
    <text class="muted" x="256" y="86">structured operational events</text>

    <rect class="chip" x="18" y="98" width="434" height="48"/>
    <text class="muted" x="32" y="122">Governance Patterns (design goal)</text>
    <text class="muted" x="32" y="140">audit trail • redaction • least privilege output</text>
  </g>

  <!-- Wires -->
  <path class="wire" d="M290 210 C315 210, 315 210, 330 210"/>
  <path class="wire2" d="M630 210 C655 210, 655 210, 670 210"/>
  <circle cx="330" cy="210" r="4" fill="#49a3ff"/>
  <circle cx="670" cy="210" r="4" fill="#7c3aed"/>

  <!-- Footer -->
  <text class="muted" x="56" y="326">RisaLuthor • portfolio-grade backend patterns • observability-first engineering</text>
</svg>
